<svg xmlns="http://www.w3.org/2000/svg" viewBox="0 0 700 380">
  <defs>
    <marker id="arrAO" markerWidth="8" markerHeight="6" refX="7" refY="3" orient="auto">
      <polygon points="0 0, 8 3, 0 6" fill="#4a5568"/>
    </marker>
  </defs>

  <text x="350" y="25" font-family="Inter, system-ui, sans-serif" font-size="16" font-weight="600" fill="#2d3748" text-anchor="middle">faber_neuroevolution Architecture</text>

  <!-- Your Domain (top) -->
  <rect x="50" y="50" width="600" height="70" rx="8" fill="#faf5ff" stroke="#9f7aea" stroke-width="2"/>
  <text x="350" y="75" font-family="Inter, system-ui, sans-serif" font-size="12" font-weight="500" fill="#6b46c1" text-anchor="middle">Your Domain Code</text>
  <rect x="80" y="90" width="160" height="25" rx="4" fill="#9f7aea"/>
  <text x="160" y="107" font-family="monospace" font-size="9" fill="white" text-anchor="middle">neuroevolution_evaluator</text>
  <rect x="270" y="90" width="160" height="25" rx="4" fill="#805ad5"/>
  <text x="350" y="107" font-family="monospace" font-size="9" fill="white" text-anchor="middle">calculate_fitness/1</text>
  <rect x="460" y="90" width="160" height="25" rx="4" fill="#6b46c1"/>
  <text x="540" y="107" font-family="monospace" font-size="9" fill="white" text-anchor="middle">evaluate/2</text>

  <!-- Training Orchestration (middle) -->
  <rect x="50" y="150" width="600" height="100" rx="8" fill="#f0fff4" stroke="#48bb78" stroke-width="2"/>
  <text x="350" y="175" font-family="Inter, system-ui, sans-serif" font-size="12" font-weight="500" fill="#276749" text-anchor="middle">faber_neuroevolution (Training Orchestration)</text>

  <rect x="80" y="190" width="130" height="50" rx="4" fill="#48bb78"/>
  <text x="145" y="210" font-family="Inter, system-ui, sans-serif" font-size="9" fill="white" text-anchor="middle">Population</text>
  <text x="145" y="225" font-family="Inter, system-ui, sans-serif" font-size="9" fill="white" text-anchor="middle">Management</text>

  <rect x="230" y="190" width="130" height="50" rx="4" fill="#38a169"/>
  <text x="295" y="210" font-family="Inter, system-ui, sans-serif" font-size="9" fill="white" text-anchor="middle">Selection</text>
  <text x="295" y="225" font-family="Inter, system-ui, sans-serif" font-size="9" fill="white" text-anchor="middle">Strategies</text>

  <rect x="380" y="190" width="130" height="50" rx="4" fill="#276749"/>
  <text x="445" y="210" font-family="Inter, system-ui, sans-serif" font-size="9" fill="white" text-anchor="middle">Crossover</text>
  <text x="445" y="225" font-family="Inter, system-ui, sans-serif" font-size="9" fill="white" text-anchor="middle">Mutation</text>

  <rect x="530" y="190" width="100" height="50" rx="4" fill="#22543d"/>
  <text x="580" y="210" font-family="Inter, system-ui, sans-serif" font-size="9" fill="white" text-anchor="middle">Meta-</text>
  <text x="580" y="225" font-family="Inter, system-ui, sans-serif" font-size="9" fill="white" text-anchor="middle">Controller</text>

  <!-- Network Operations (bottom) -->
  <rect x="50" y="280" width="600" height="70" rx="8" fill="#ebf8ff" stroke="#4299e1" stroke-width="2"/>
  <text x="350" y="305" font-family="Inter, system-ui, sans-serif" font-size="12" font-weight="500" fill="#2b6cb0" text-anchor="middle">faber_tweann (Network Operations)</text>
  <rect x="80" y="320" width="130" height="25" rx="4" fill="#4299e1"/>
  <text x="145" y="337" font-family="monospace" font-size="9" fill="white" text-anchor="middle">brain:evaluate/2</text>
  <rect x="230" y="320" width="130" height="25" rx="4" fill="#3182ce"/>
  <text x="295" y="337" font-family="monospace" font-size="9" fill="white" text-anchor="middle">mutate_weights</text>
  <rect x="380" y="320" width="130" height="25" rx="4" fill="#2b6cb0"/>
  <text x="445" y="337" font-family="monospace" font-size="9" fill="white" text-anchor="middle">crossover</text>
  <rect x="530" y="320" width="100" height="25" rx="4" fill="#1a365d"/>
  <text x="580" y="337" font-family="monospace" font-size="9" fill="white" text-anchor="middle">LTC neurons</text>

  <!-- Arrows -->
  <path d="M 350 120 L 350 145" stroke="#4a5568" stroke-width="2" marker-end="url(#arrAO)"/>
  <path d="M 350 250 L 350 275" stroke="#4a5568" stroke-width="2" marker-end="url(#arrAO)"/>

  <!-- Labels on arrows -->
  <text x="365" y="135" font-family="Inter, system-ui, sans-serif" font-size="8" fill="#718096">evaluations</text>
  <text x="365" y="265" font-family="Inter, system-ui, sans-serif" font-size="8" fill="#718096">networks</text>
</svg>
