<?xml version="1.0" encoding="UTF-8"?>
<svg xmlns="http://www.w3.org/2000/svg" viewBox="0 0 900 700">
  <defs>
    <linearGradient id="regGrad2" x1="0%" y1="0%" x2="0%" y2="100%">
      <stop offset="0%" style="stop-color:#f472b6"/>
      <stop offset="100%" style="stop-color:#ec4899"/>
    </linearGradient>
    <linearGradient id="geneActiveGrad" x1="0%" y1="0%" x2="0%" y2="100%">
      <stop offset="0%" style="stop-color:#4ade80"/>
      <stop offset="100%" style="stop-color:#22c55e"/>
    </linearGradient>
    <linearGradient id="geneDormantGrad" x1="0%" y1="0%" x2="0%" y2="100%">
      <stop offset="0%" style="stop-color:#94a3b8"/>
      <stop offset="100%" style="stop-color:#64748b"/>
    </linearGradient>
    <linearGradient id="moduleGrad" x1="0%" y1="0%" x2="0%" y2="100%">
      <stop offset="0%" style="stop-color:#60a5fa"/>
      <stop offset="100%" style="stop-color:#3b82f6"/>
    </linearGradient>
    <linearGradient id="epigeneticGrad" x1="0%" y1="0%" x2="0%" y2="100%">
      <stop offset="0%" style="stop-color:#c084fc"/>
      <stop offset="100%" style="stop-color:#a855f7"/>
    </linearGradient>
    <marker id="arrowReg2" markerWidth="10" markerHeight="7" refX="9" refY="3.5" orient="auto">
      <polygon points="0 0, 10 3.5, 0 7" fill="#64748b"/>
    </marker>
    <filter id="shadowReg2" x="-10%" y="-10%" width="120%" height="120%">
      <feDropShadow dx="2" dy="2" stdDeviation="2" flood-opacity="0.2"/>
    </filter>
  </defs>

  <!-- Background -->
  <rect width="900" height="700" fill="#f8fafc"/>

  <!-- Title -->
  <text x="450" y="30" text-anchor="middle" font-family="Arial, sans-serif" font-size="20" font-weight="bold" fill="#1e293b">Regulatory Silo Dynamics</text>

  <!-- Gene Expression Section -->
  <rect x="40" y="50" width="400" height="200" rx="10" fill="white" stroke="#ec4899" stroke-width="2" filter="url(#shadowReg2)"/>
  <rect x="40" y="50" width="400" height="30" rx="10" fill="url(#regGrad2)"/>
  <rect x="40" y="70" width="400" height="10" fill="url(#regGrad2)"/>
  <text x="240" y="72" text-anchor="middle" font-family="Arial, sans-serif" font-size="12" font-weight="bold" fill="white">Gene Expression States</text>

  <!-- Genome representation -->
  <text x="60" y="105" font-family="Arial, sans-serif" font-size="10" fill="#9d174d">Genome (genes as segments):</text>

  <!-- Active genes -->
  <rect x="60" y="115" width="40" height="20" rx="3" fill="url(#geneActiveGrad)"/>
  <text x="80" y="130" text-anchor="middle" font-family="Arial, sans-serif" font-size="8" fill="white">G1</text>
  <rect x="105" y="115" width="40" height="20" rx="3" fill="url(#geneActiveGrad)"/>
  <text x="125" y="130" text-anchor="middle" font-family="Arial, sans-serif" font-size="8" fill="white">G2</text>

  <!-- Dormant genes -->
  <rect x="150" y="115" width="40" height="20" rx="3" fill="url(#geneDormantGrad)"/>
  <text x="170" y="130" text-anchor="middle" font-family="Arial, sans-serif" font-size="8" fill="white">G3</text>

  <!-- Active genes -->
  <rect x="195" y="115" width="40" height="20" rx="3" fill="url(#geneActiveGrad)"/>
  <text x="215" y="130" text-anchor="middle" font-family="Arial, sans-serif" font-size="8" fill="white">G4</text>

  <!-- Dormant genes -->
  <rect x="240" y="115" width="40" height="20" rx="3" fill="url(#geneDormantGrad)"/>
  <text x="260" y="130" text-anchor="middle" font-family="Arial, sans-serif" font-size="8" fill="white">G5</text>
  <rect x="285" y="115" width="40" height="20" rx="3" fill="url(#geneDormantGrad)"/>
  <text x="305" y="130" text-anchor="middle" font-family="Arial, sans-serif" font-size="8" fill="white">G6</text>

  <!-- Active genes -->
  <rect x="330" y="115" width="40" height="20" rx="3" fill="url(#geneActiveGrad)"/>
  <text x="350" y="130" text-anchor="middle" font-family="Arial, sans-serif" font-size="8" fill="white">G7</text>
  <rect x="375" y="115" width="40" height="20" rx="3" fill="url(#geneActiveGrad)"/>
  <text x="395" y="130" text-anchor="middle" font-family="Arial, sans-serif" font-size="8" fill="white">G8</text>

  <!-- Legend for genes -->
  <rect x="60" y="150" width="15" height="15" rx="2" fill="url(#geneActiveGrad)"/>
  <text x="80" y="162" font-family="Arial, sans-serif" font-size="9" fill="#475569">Active (expressed)</text>
  <rect x="180" y="150" width="15" height="15" rx="2" fill="url(#geneDormantGrad)"/>
  <text x="200" y="162" font-family="Arial, sans-serif" font-size="9" fill="#475569">Dormant (silenced)</text>

  <!-- Expression ratio -->
  <text x="60" y="185" font-family="Arial, sans-serif" font-size="10" fill="#9d174d">Active gene ratio: 5/8 = 62.5%</text>
  <text x="60" y="200" font-family="Arial, sans-serif" font-size="10" fill="#9d174d">Dormant capabilities: G3, G5, G6 available for activation</text>

  <!-- Expression threshold bar -->
  <text x="60" y="225" font-family="Arial, sans-serif" font-size="10" fill="#9d174d">Expression threshold:</text>
  <rect x="170" y="215" width="200" height="15" rx="3" fill="#e2e8f0"/>
  <rect x="170" y="215" width="100" height="15" rx="3" fill="#ec4899"/>
  <text x="270" y="226" text-anchor="middle" font-family="Arial, sans-serif" font-size="8" fill="white">0.5</text>
  <line x1="220" y1="213" x2="220" y2="232" stroke="#1e293b" stroke-width="2"/>
  <text x="220" y="242" text-anchor="middle" font-family="Arial, sans-serif" font-size="8" fill="#475569">signal</text>

  <!-- Module Activation Section -->
  <rect x="460" y="50" width="400" height="200" rx="10" fill="white" stroke="#3b82f6" stroke-width="2" filter="url(#shadowReg2)"/>
  <rect x="460" y="50" width="400" height="30" rx="10" fill="url(#moduleGrad)"/>
  <rect x="460" y="70" width="400" height="10" fill="url(#moduleGrad)"/>
  <text x="660" y="72" text-anchor="middle" font-family="Arial, sans-serif" font-size="12" font-weight="bold" fill="white">Module Activation Patterns</text>

  <!-- Modules -->
  <text x="480" y="105" font-family="Arial, sans-serif" font-size="10" fill="#1d4ed8">Functional modules (gene groups):</text>

  <!-- Module 1 - Active -->
  <rect x="480" y="115" width="100" height="50" rx="6" fill="#dbeafe" stroke="#3b82f6" stroke-width="2"/>
  <text x="530" y="135" text-anchor="middle" font-family="Arial, sans-serif" font-size="10" font-weight="bold" fill="#1d4ed8">Sensory</text>
  <text x="530" y="150" text-anchor="middle" font-family="Arial, sans-serif" font-size="8" fill="#3b82f6">G1, G2, G4</text>
  <circle cx="570" cy="125" r="6" fill="#22c55e"/>
  <text x="570" y="128" text-anchor="middle" font-family="Arial, sans-serif" font-size="8" fill="white">ON</text>

  <!-- Module 2 - Inactive -->
  <rect x="590" y="115" width="100" height="50" rx="6" fill="#f1f5f9" stroke="#94a3b8" stroke-width="2"/>
  <text x="640" y="135" text-anchor="middle" font-family="Arial, sans-serif" font-size="10" font-weight="bold" fill="#64748b">Motor</text>
  <text x="640" y="150" text-anchor="middle" font-family="Arial, sans-serif" font-size="8" fill="#94a3b8">G3, G5</text>
  <circle cx="680" cy="125" r="6" fill="#94a3b8"/>
  <text x="680" y="128" text-anchor="middle" font-family="Arial, sans-serif" font-size="6" fill="white">OFF</text>

  <!-- Module 3 - Active -->
  <rect x="700" y="115" width="100" height="50" rx="6" fill="#dbeafe" stroke="#3b82f6" stroke-width="2"/>
  <text x="750" y="135" text-anchor="middle" font-family="Arial, sans-serif" font-size="10" font-weight="bold" fill="#1d4ed8">Cognitive</text>
  <text x="750" y="150" text-anchor="middle" font-family="Arial, sans-serif" font-size="8" fill="#3b82f6">G7, G8</text>
  <circle cx="790" cy="125" r="6" fill="#22c55e"/>
  <text x="790" y="128" text-anchor="middle" font-family="Arial, sans-serif" font-size="8" fill="white">ON</text>

  <!-- Module 4 - Inactive -->
  <rect x="810" y="115" width="40" height="50" rx="6" fill="#f1f5f9" stroke="#94a3b8" stroke-width="2"/>
  <text x="830" y="140" text-anchor="middle" font-family="Arial, sans-serif" font-size="8" font-weight="bold" fill="#64748b">G6</text>
  <circle cx="830" cy="155" r="6" fill="#94a3b8"/>

  <!-- Switching cost indicator -->
  <text x="480" y="185" font-family="Arial, sans-serif" font-size="10" fill="#1d4ed8">Module switching cost:</text>
  <rect x="610" y="175" width="150" height="15" rx="3" fill="#e2e8f0"/>
  <rect x="610" y="175" width="45" height="15" rx="3" fill="#3b82f6"/>
  <text x="635" y="186" text-anchor="middle" font-family="Arial, sans-serif" font-size="8" fill="white">0.3</text>

  <text x="480" y="210" font-family="Arial, sans-serif" font-size="10" fill="#1d4ed8">Context sensitivity:</text>
  <rect x="610" y="200" width="150" height="15" rx="3" fill="#e2e8f0"/>
  <rect x="610" y="200" width="105" height="15" rx="3" fill="#3b82f6"/>
  <text x="665" y="211" text-anchor="middle" font-family="Arial, sans-serif" font-size="8" fill="white">0.7</text>

  <text x="480" y="235" font-family="Arial, sans-serif" font-size="9" font-style="italic" fill="#64748b">High sensitivity = quick context-dependent switching</text>

  <!-- Epigenetic Marks Section -->
  <rect x="40" y="270" width="400" height="180" rx="10" fill="white" stroke="#a855f7" stroke-width="2" filter="url(#shadowReg2)"/>
  <rect x="40" y="270" width="400" height="30" rx="10" fill="url(#epigeneticGrad)"/>
  <rect x="40" y="290" width="400" height="10" fill="url(#epigeneticGrad)"/>
  <text x="240" y="292" text-anchor="middle" font-family="Arial, sans-serif" font-size="12" font-weight="bold" fill="white">Epigenetic Marks &amp; Inheritance</text>

  <!-- Genome with epigenetic marks -->
  <text x="60" y="325" font-family="Arial, sans-serif" font-size="10" fill="#6b21a8">Epigenetic marks on genome:</text>

  <!-- Gene segments with marks -->
  <rect x="60" y="335" width="40" height="20" rx="3" fill="#ddd6fe" stroke="#a855f7"/>
  <circle cx="70" cy="340" r="4" fill="#7c3aed"/>
  <text x="80" y="350" text-anchor="middle" font-family="Arial, sans-serif" font-size="8" fill="#6b21a8">G1</text>

  <rect x="105" y="335" width="40" height="20" rx="3" fill="#ddd6fe" stroke="#a855f7"/>
  <circle cx="115" cy="340" r="4" fill="#7c3aed"/>
  <circle cx="125" cy="340" r="4" fill="#7c3aed"/>
  <text x="125" y="350" text-anchor="middle" font-family="Arial, sans-serif" font-size="8" fill="#6b21a8">G2</text>

  <rect x="150" y="335" width="40" height="20" rx="3" fill="#f1f5f9" stroke="#94a3b8"/>
  <text x="170" y="350" text-anchor="middle" font-family="Arial, sans-serif" font-size="8" fill="#64748b">G3</text>

  <rect x="195" y="335" width="40" height="20" rx="3" fill="#ddd6fe" stroke="#a855f7"/>
  <circle cx="205" cy="340" r="4" fill="#7c3aed"/>
  <text x="215" y="350" text-anchor="middle" font-family="Arial, sans-serif" font-size="8" fill="#6b21a8">G4</text>

  <rect x="240" y="335" width="40" height="20" rx="3" fill="#f1f5f9" stroke="#94a3b8"/>
  <text x="260" y="350" text-anchor="middle" font-family="Arial, sans-serif" font-size="8" fill="#64748b">G5</text>

  <rect x="285" y="335" width="40" height="20" rx="3" fill="#f1f5f9" stroke="#94a3b8"/>
  <text x="305" y="350" text-anchor="middle" font-family="Arial, sans-serif" font-size="8" fill="#64748b">G6</text>

  <rect x="330" y="335" width="40" height="20" rx="3" fill="#ddd6fe" stroke="#a855f7"/>
  <circle cx="340" cy="340" r="4" fill="#7c3aed"/>
  <circle cx="350" cy="340" r="4" fill="#7c3aed"/>
  <circle cx="360" cy="340" r="4" fill="#7c3aed"/>
  <text x="350" y="350" text-anchor="middle" font-family="Arial, sans-serif" font-size="8" fill="#6b21a8">G7</text>

  <rect x="375" y="335" width="40" height="20" rx="3" fill="#ddd6fe" stroke="#a855f7"/>
  <circle cx="385" cy="340" r="4" fill="#7c3aed"/>
  <text x="395" y="350" text-anchor="middle" font-family="Arial, sans-serif" font-size="8" fill="#6b21a8">G8</text>

  <!-- Mark legend -->
  <circle cx="70" cy="375" r="5" fill="#7c3aed"/>
  <text x="80" y="378" font-family="Arial, sans-serif" font-size="9" fill="#475569">= Epigenetic mark (methylation, acetylation)</text>

  <!-- Inheritance diagram -->
  <text x="60" y="405" font-family="Arial, sans-serif" font-size="10" fill="#6b21a8">Inheritance strength: 0.5</text>

  <rect x="200" y="395" width="60" height="25" rx="4" fill="#ddd6fe" stroke="#a855f7"/>
  <text x="230" y="412" text-anchor="middle" font-family="Arial, sans-serif" font-size="9" fill="#6b21a8">Parent</text>
  <circle cx="245" cy="402" r="4" fill="#7c3aed"/>
  <circle cx="255" cy="402" r="4" fill="#7c3aed"/>

  <path d="M260 408 L280 420" stroke="#a855f7" stroke-width="1.5" marker-end="url(#arrowReg2)"/>
  <path d="M200 408 L180 420" stroke="#a855f7" stroke-width="1.5" marker-end="url(#arrowReg2)"/>

  <rect x="140" y="425" width="60" height="25" rx="4" fill="#ede9fe" stroke="#c4b5fd"/>
  <text x="170" y="442" text-anchor="middle" font-family="Arial, sans-serif" font-size="9" fill="#7c3aed">Child 1</text>
  <circle cx="190" cy="432" r="4" fill="#7c3aed"/>

  <rect x="260" y="425" width="60" height="25" rx="4" fill="#ede9fe" stroke="#c4b5fd"/>
  <text x="290" y="442" text-anchor="middle" font-family="Arial, sans-serif" font-size="9" fill="#7c3aed">Child 2</text>
  <circle cx="310" cy="432" r="4" fill="#7c3aed"/>

  <text x="340" y="435" font-family="Arial, sans-serif" font-size="8" font-style="italic" fill="#64748b">50% marks inherited</text>

  <!-- Context Switching Section -->
  <rect x="460" y="270" width="400" height="180" rx="10" fill="white" stroke="#f97316" stroke-width="2" filter="url(#shadowReg2)"/>
  <rect x="460" y="270" width="400" height="30" rx="10" fill="#fb923c"/>
  <rect x="460" y="290" width="400" height="10" fill="#fb923c"/>
  <text x="660" y="292" text-anchor="middle" font-family="Arial, sans-serif" font-size="12" font-weight="bold" fill="white">Context Switching</text>

  <!-- Context states -->
  <text x="480" y="325" font-family="Arial, sans-serif" font-size="10" fill="#c2410c">Environmental contexts trigger expression changes:</text>

  <!-- Context A -->
  <rect x="490" y="335" width="100" height="60" rx="6" fill="#fef3c7" stroke="#f59e0b" stroke-width="2"/>
  <text x="540" y="355" text-anchor="middle" font-family="Arial, sans-serif" font-size="10" font-weight="bold" fill="#b45309">Context A</text>
  <text x="540" y="370" text-anchor="middle" font-family="Arial, sans-serif" font-size="8" fill="#b45309">"High Resource"</text>
  <text x="540" y="385" text-anchor="middle" font-family="Arial, sans-serif" font-size="8" fill="#b45309">Sensory+Cognitive</text>

  <!-- Arrow -->
  <path d="M595 365 L625 365" stroke="#64748b" stroke-width="2" marker-end="url(#arrowReg2)"/>
  <text x="610" y="355" text-anchor="middle" font-family="Arial, sans-serif" font-size="8" fill="#64748b">switch</text>

  <!-- Context B -->
  <rect x="630" y="335" width="100" height="60" rx="6" fill="#fee2e2" stroke="#ef4444" stroke-width="2"/>
  <text x="680" y="355" text-anchor="middle" font-family="Arial, sans-serif" font-size="10" font-weight="bold" fill="#b91c1c">Context B</text>
  <text x="680" y="370" text-anchor="middle" font-family="Arial, sans-serif" font-size="8" fill="#b91c1c">"Under Attack"</text>
  <text x="680" y="385" text-anchor="middle" font-family="Arial, sans-serif" font-size="8" fill="#b91c1c">Motor+Defense</text>

  <!-- Arrow -->
  <path d="M735 365 L765 365" stroke="#64748b" stroke-width="2" marker-end="url(#arrowReg2)"/>
  <text x="750" y="355" text-anchor="middle" font-family="Arial, sans-serif" font-size="8" fill="#64748b">switch</text>

  <!-- Context C -->
  <rect x="770" y="335" width="80" height="60" rx="6" fill="#dcfce7" stroke="#22c55e" stroke-width="2"/>
  <text x="810" y="355" text-anchor="middle" font-family="Arial, sans-serif" font-size="10" font-weight="bold" fill="#166534">Context C</text>
  <text x="810" y="370" text-anchor="middle" font-family="Arial, sans-serif" font-size="8" fill="#166534">"Learning"</text>
  <text x="810" y="385" text-anchor="middle" font-family="Arial, sans-serif" font-size="8" fill="#166534">All modules</text>

  <!-- Context history -->
  <text x="480" y="415" font-family="Arial, sans-serif" font-size="10" fill="#c2410c">Context history (last 10):</text>
  <rect x="480" y="420" width="15" height="15" rx="2" fill="#fef3c7" stroke="#f59e0b"/>
  <rect x="498" y="420" width="15" height="15" rx="2" fill="#fef3c7" stroke="#f59e0b"/>
  <rect x="516" y="420" width="15" height="15" rx="2" fill="#fee2e2" stroke="#ef4444"/>
  <rect x="534" y="420" width="15" height="15" rx="2" fill="#fee2e2" stroke="#ef4444"/>
  <rect x="552" y="420" width="15" height="15" rx="2" fill="#fee2e2" stroke="#ef4444"/>
  <rect x="570" y="420" width="15" height="15" rx="2" fill="#dcfce7" stroke="#22c55e"/>
  <rect x="588" y="420" width="15" height="15" rx="2" fill="#dcfce7" stroke="#22c55e"/>
  <rect x="606" y="420" width="15" height="15" rx="2" fill="#fef3c7" stroke="#f59e0b"/>
  <rect x="624" y="420" width="15" height="15" rx="2" fill="#fef3c7" stroke="#f59e0b"/>
  <rect x="642" y="420" width="15" height="15" rx="2" fill="#fef3c7" stroke="#f59e0b"/>

  <text x="680" y="432" font-family="Arial, sans-serif" font-size="9" fill="#64748b">Switch frequency: 0.4</text>

  <!-- Transcription Factors Section -->
  <rect x="40" y="470" width="400" height="210" rx="10" fill="white" stroke="#0ea5e9" stroke-width="2" filter="url(#shadowReg2)"/>
  <rect x="40" y="470" width="400" height="30" rx="10" fill="#0ea5e9"/>
  <rect x="40" y="490" width="400" height="10" fill="#0ea5e9"/>
  <text x="240" y="492" text-anchor="middle" font-family="Arial, sans-serif" font-size="12" font-weight="bold" fill="white">Transcription Factor Network</text>

  <!-- TF network diagram -->
  <text x="60" y="525" font-family="Arial, sans-serif" font-size="10" fill="#0369a1">Regulatory signals controlling expression:</text>

  <!-- TF nodes -->
  <circle cx="100" cy="560" r="20" fill="#e0f2fe" stroke="#0ea5e9" stroke-width="2"/>
  <text x="100" y="565" text-anchor="middle" font-family="Arial, sans-serif" font-size="9" font-weight="bold" fill="#0369a1">TF1</text>

  <circle cx="180" cy="560" r="20" fill="#e0f2fe" stroke="#0ea5e9" stroke-width="2"/>
  <text x="180" y="565" text-anchor="middle" font-family="Arial, sans-serif" font-size="9" font-weight="bold" fill="#0369a1">TF2</text>

  <circle cx="260" cy="560" r="20" fill="#e0f2fe" stroke="#0ea5e9" stroke-width="2"/>
  <text x="260" y="565" text-anchor="middle" font-family="Arial, sans-serif" font-size="9" font-weight="bold" fill="#0369a1">TF3</text>

  <circle cx="340" cy="560" r="20" fill="#fef3c7" stroke="#f59e0b" stroke-width="2"/>
  <text x="340" y="565" text-anchor="middle" font-family="Arial, sans-serif" font-size="9" font-weight="bold" fill="#b45309">TF4</text>

  <!-- Connections -->
  <path d="M120 560 L160 560" stroke="#0ea5e9" stroke-width="1.5" marker-end="url(#arrowReg2)"/>
  <path d="M200 560 L240 560" stroke="#0ea5e9" stroke-width="1.5" marker-end="url(#arrowReg2)"/>
  <path d="M100 580 L180 610" stroke="#0ea5e9" stroke-width="1.5"/>
  <path d="M180 580 L180 610" stroke="#0ea5e9" stroke-width="1.5"/>
  <path d="M260 580 L260 610" stroke="#0ea5e9" stroke-width="1.5"/>
  <path d="M340 580 L300 610" stroke="#f59e0b" stroke-width="1.5" stroke-dasharray="3,2"/>

  <!-- Target genes -->
  <rect x="140" y="610" width="30" height="20" rx="3" fill="url(#geneActiveGrad)"/>
  <text x="155" y="624" text-anchor="middle" font-family="Arial, sans-serif" font-size="7" fill="white">G1</text>

  <rect x="175" y="610" width="30" height="20" rx="3" fill="url(#geneActiveGrad)"/>
  <text x="190" y="624" text-anchor="middle" font-family="Arial, sans-serif" font-size="7" fill="white">G2</text>

  <rect x="245" y="610" width="30" height="20" rx="3" fill="url(#geneActiveGrad)"/>
  <text x="260" y="624" text-anchor="middle" font-family="Arial, sans-serif" font-size="7" fill="white">G7</text>

  <rect x="280" y="610" width="30" height="20" rx="3" fill="url(#geneDormantGrad)"/>
  <text x="295" y="624" text-anchor="middle" font-family="Arial, sans-serif" font-size="7" fill="white">G3</text>

  <!-- Legend -->
  <text x="60" y="660" font-family="Arial, sans-serif" font-size="9" fill="#475569">Solid line = activation | Dashed = repression</text>
  <text x="60" y="675" font-family="Arial, sans-serif" font-size="9" fill="#475569">TF diversity: 4 types | Network complexity: 0.6</text>

  <!-- Expression Dynamics Section -->
  <rect x="460" y="470" width="400" height="210" rx="10" fill="white" stroke="#ec4899" stroke-width="2" filter="url(#shadowReg2)"/>
  <rect x="460" y="470" width="400" height="30" rx="10" fill="url(#regGrad2)"/>
  <rect x="460" y="490" width="400" height="10" fill="url(#regGrad2)"/>
  <text x="660" y="492" text-anchor="middle" font-family="Arial, sans-serif" font-size="12" font-weight="bold" fill="white">Expression Dynamics Over Time</text>

  <!-- Time series chart -->
  <text x="480" y="525" font-family="Arial, sans-serif" font-size="10" fill="#9d174d">Expression levels by generation:</text>

  <!-- Y axis -->
  <line x1="500" y1="540" x2="500" y2="640" stroke="#94a3b8" stroke-width="1"/>
  <text x="490" y="545" text-anchor="end" font-family="Arial, sans-serif" font-size="8" fill="#64748b">1.0</text>
  <text x="490" y="595" text-anchor="end" font-family="Arial, sans-serif" font-size="8" fill="#64748b">0.5</text>
  <text x="490" y="645" text-anchor="end" font-family="Arial, sans-serif" font-size="8" fill="#64748b">0.0</text>

  <!-- X axis -->
  <line x1="500" y1="640" x2="830" y2="640" stroke="#94a3b8" stroke-width="1"/>
  <text x="500" y="655" text-anchor="middle" font-family="Arial, sans-serif" font-size="8" fill="#64748b">0</text>
  <text x="610" y="655" text-anchor="middle" font-family="Arial, sans-serif" font-size="8" fill="#64748b">50</text>
  <text x="720" y="655" text-anchor="middle" font-family="Arial, sans-serif" font-size="8" fill="#64748b">100</text>
  <text x="830" y="655" text-anchor="middle" font-family="Arial, sans-serif" font-size="8" fill="#64748b">gen</text>

  <!-- Active gene ratio line -->
  <path d="M500 560 L520 565 L540 555 L560 545 L580 550 L600 540 L620 545 L640 550 L660 545 L680 548 L700 550 L720 548 L740 545 L760 542 L780 545 L800 548 L820 545" stroke="#22c55e" stroke-width="2" fill="none"/>

  <!-- Expression noise line -->
  <path d="M500 610 L520 605 L540 615 L560 608 L580 618 L600 605 L620 612 L640 620 L660 608 L680 615 L700 610 L720 618 L740 605 L760 612 L780 618 L800 608 L820 612" stroke="#f97316" stroke-width="2" fill="none"/>

  <!-- Threshold line -->
  <line x1="500" y1="590" x2="820" y2="590" stroke="#ec4899" stroke-width="1" stroke-dasharray="4,2"/>

  <!-- Legend -->
  <line x1="490" y1="670" x2="510" y2="670" stroke="#22c55e" stroke-width="2"/>
  <text x="515" y="673" font-family="Arial, sans-serif" font-size="9" fill="#475569">Active ratio</text>
  <line x1="590" y1="670" x2="610" y2="670" stroke="#f97316" stroke-width="2"/>
  <text x="615" y="673" font-family="Arial, sans-serif" font-size="9" fill="#475569">Expression noise</text>
  <line x1="710" y1="670" x2="730" y2="670" stroke="#ec4899" stroke-width="1" stroke-dasharray="4,2"/>
  <text x="735" y="673" font-family="Arial, sans-serif" font-size="9" fill="#475569">Threshold</text>
</svg>
